<svg xmlns="http://www.w3.org/2000/svg" viewBox="0 0 640 340" fill="none">
  <rect width="640" height="340" rx="16" fill="#f8faf9"/>
  
  <!-- Main document -->
  <rect x="200" y="30" width="240" height="200" rx="12" fill="#ffffff" stroke="#1a1a1a" stroke-width="2"/>
  
  <!-- Document header -->
  <rect x="220" y="48" width="80" height="8" rx="4" fill="#1a1a1a" opacity="0.2"/>
  <rect x="220" y="62" width="120" height="4" rx="2" fill="#1a1a1a" opacity="0.06"/>
  
  <!-- Text lines -->
  <rect x="220" y="80" width="180" height="4" rx="2" fill="#1a1a1a" opacity="0.08"/>
  <rect x="220" y="90" width="160" height="4" rx="2" fill="#1a1a1a" opacity="0.06"/>
  <rect x="220" y="100" width="170" height="4" rx="2" fill="#1a1a1a" opacity="0.08"/>
  
  <!-- Highlighted clause -->
  <rect x="216" y="114" width="188" height="20" rx="4" fill="#10b981" opacity="0.08"/>
  <rect x="220" y="120" width="140" height="5" rx="2" fill="#10b981" opacity="0.4"/>
  <rect x="220" y="128" width="100" height="3" rx="1" fill="#10b981" opacity="0.2"/>
  
  <!-- More text -->
  <rect x="220" y="144" width="170" height="4" rx="2" fill="#1a1a1a" opacity="0.06"/>
  <rect x="220" y="154" width="150" height="4" rx="2" fill="#1a1a1a" opacity="0.08"/>
  
  <!-- Another highlight -->
  <rect x="216" y="166" width="188" height="20" rx="4" fill="#f59e0b" opacity="0.08"/>
  <rect x="220" y="172" width="120" height="5" rx="2" fill="#f59e0b" opacity="0.4"/>
  <rect x="220" y="180" width="80" height="3" rx="1" fill="#f59e0b" opacity="0.2"/>
  
  <!-- More text -->
  <rect x="220" y="196" width="160" height="4" rx="2" fill="#1a1a1a" opacity="0.06"/>
  <rect x="220" y="206" width="140" height="4" rx="2" fill="#1a1a1a" opacity="0.08"/>
  
  <!-- Magnifying glass -->
  <circle cx="460" cy="100" r="40" fill="#ffffff" stroke="#1a1a1a" stroke-width="2"/>
  <circle cx="460" cy="100" r="30" fill="#f0fdf4"/>
  <line x1="488" y1="128" x2="520" y2="160" stroke="#1a1a1a" stroke-width="4" stroke-linecap="round"/>
  
  <!-- Inside magnifying glass: key clause -->
  <rect x="442" y="88" width="36" height="4" rx="2" fill="#10b981" opacity="0.5"/>
  <rect x="442" y="96" width="28" height="3" rx="1" fill="#10b981" opacity="0.3"/>
  <rect x="442" y="104" width="32" height="3" rx="1" fill="#1a1a1a" opacity="0.1"/>
  
  <!-- Extracted items at bottom -->
  <g>
    <rect x="80" y="260" width="150" height="48" rx="10" fill="#ffffff" stroke="#10b981" stroke-width="1.5"/>
    <circle cx="100" cy="280" r="6" fill="#10b981" opacity="0.2"/>
    <path d="M97 280 L100 283 L104 277" stroke="#10b981" stroke-width="1.5" fill="none"/>
    <rect x="112" y="276" width="60" height="5" rx="2" fill="#1a1a1a" opacity="0.2"/>
    <rect x="112" y="285" width="80" height="3" rx="1" fill="#1a1a1a" opacity="0.06"/>
  </g>
  <g>
    <rect x="250" y="260" width="150" height="48" rx="10" fill="#ffffff" stroke="#f59e0b" stroke-width="1.5"/>
    <circle cx="270" cy="280" r="6" fill="#f59e0b" opacity="0.2"/>
    <text x="270" y="284" font-size="10" fill="#f59e0b" text-anchor="middle" font-family="sans-serif" font-weight="700">!</text>
    <rect x="282" y="276" width="60" height="5" rx="2" fill="#1a1a1a" opacity="0.2"/>
    <rect x="282" y="285" width="80" height="3" rx="1" fill="#1a1a1a" opacity="0.06"/>
  </g>
  <g>
    <rect x="420" y="260" width="150" height="48" rx="10" fill="#ffffff" stroke="#e8eaed" stroke-width="1.5"/>
    <circle cx="440" cy="280" r="6" fill="#1a1a1a" opacity="0.08"/>
    <rect x="452" y="276" width="60" height="5" rx="2" fill="#1a1a1a" opacity="0.15"/>
    <rect x="452" y="285" width="80" height="3" rx="1" fill="#1a1a1a" opacity="0.06"/>
  </g>
</svg>
